<?xml version="1.0" encoding="utf-8"?>
<!-- Generator: Adobe Illustrator 19.0.0, SVG Export Plug-In . SVG Version: 6.00 Build 0)  -->
<svg version="1.1" id="Layer_1" xmlns="http://www.w3.org/2000/svg" xmlns:xlink="http://www.w3.org/1999/xlink" x="0px" y="0px"
	 viewBox="0 0 42 103" style="enable-background:new 0 0 42 103;" xml:space="preserve">
<style type="text/css">
	.st0{fill:#010101;}
</style>
<g id="XMLID_14_">
	<path id="XMLID_25_" class="st0" d="M18.5,27.4l4.8-0.9c0.3-0.1,0.6-0.4,0.6-0.8V2.1c0-0.6-0.6-1.1-1.2-1l-4,0.8
		c-0.5,0.1-0.8,0.5-0.8,1v24C17.9,27.2,18.1,27.4,18.5,27.4z"/>
	<path id="XMLID_24_" class="st0" d="M30.7,57.6c-0.9-1.3-1.7-2.5-2.5-3.8c-0.2-0.3-0.6-0.5-1-0.4l-4.6,0.9c-0.4,0.1-0.7,0.6-0.5,1
		c1.1,2,2.4,3.8,3.6,5.7c3.9,5.7,7.9,11.6,8.1,20.6C34,88.7,28.3,95,21.1,95c-7.1,0-12.9-5.7-12.9-12.8c0-9.3,4.1-15.4,8.1-21.3
		c1.1-1.6,2.2-3.2,3.2-4.9c0.3-0.5-0.1-1.1-0.7-1l-5.7,1.1c-0.5,0.1-1,0.4-1.3,0.8c-0.1,0.2-0.3,0.4-0.4,0.6
		c-4.1,6.1-8.7,12.9-9.1,23.2c-0.4,10.9,8.1,20.3,19,20.2c10.2-0.1,18.5-8.5,18.5-18.8C39.8,71,35,63.9,30.7,57.6z"/>
	<path id="XMLID_23_" class="st0" d="M13.3,55.2c0.1,0,0.1,0,0.2,0l14.9-2.9c0.5-0.1,0.9-0.6,0.8-1.2c-0.1-0.5-0.6-0.9-1.2-0.8
		l-14.9,2.9c-0.5,0.1-0.9,0.6-0.8,1.2C12.5,54.9,12.9,55.2,13.3,55.2z"/>
	<path id="XMLID_22_" class="st0" d="M13.3,52.2c0.1,0,0.1,0,0.2,0l14.9-2.9c0.5-0.1,0.9-0.6,0.8-1.2c-0.1-0.5-0.6-0.9-1.2-0.8
		l-14.9,2.9c-0.5,0.1-0.9,0.6-0.8,1.2C12.5,51.9,12.9,52.2,13.3,52.2z"/>
	<path id="XMLID_21_" class="st0" d="M13.3,49.3c0.1,0,0.1,0,0.2,0l14.9-2.9c0.5-0.1,0.9-0.6,0.8-1.2c-0.1-0.5-0.6-0.9-1.2-0.8
		l-14.9,2.9c-0.5,0.1-0.9,0.6-0.8,1.2C12.5,48.9,12.9,49.3,13.3,49.3z"/>
	<path id="XMLID_20_" class="st0" d="M13.3,46.3c0.1,0,0.1,0,0.2,0l14.9-2.9c0.5-0.1,0.9-0.6,0.8-1.2c-0.1-0.5-0.6-0.9-1.2-0.8
		l-14.9,2.9c-0.5,0.1-0.9,0.6-0.8,1.2C12.5,46,12.9,46.3,13.3,46.3z"/>
	<path id="XMLID_19_" class="st0" d="M13.3,43.3c0.1,0,0.1,0,0.2,0l14.9-2.9c0.5-0.1,0.9-0.6,0.8-1.2c-0.1-0.5-0.6-0.9-1.2-0.8
		l-14.9,2.9c-0.5,0.1-0.9,0.6-0.8,1.2C12.5,43,12.9,43.3,13.3,43.3z"/>
	<path id="XMLID_18_" class="st0" d="M13.3,40.4c0.1,0,0.1,0,0.2,0l14.9-2.9c0.5-0.1,0.9-0.6,0.8-1.2c-0.1-0.5-0.6-0.9-1.2-0.8
		l-14.9,2.9c-0.5,0.1-0.9,0.6-0.8,1.2C12.5,40,12.9,40.4,13.3,40.4z"/>
	<path id="XMLID_17_" class="st0" d="M13.3,37.4c0.1,0,0.1,0,0.2,0l14.9-2.9c0.5-0.1,0.9-0.6,0.8-1.2c-0.1-0.5-0.6-0.9-1.2-0.8
		l-14.9,2.9c-0.5,0.1-0.9,0.6-0.8,1.2C12.5,37.1,12.9,37.4,13.3,37.4z"/>
	<path id="XMLID_16_" class="st0" d="M13.3,34.4c0.1,0,0.1,0,0.2,0l14.9-2.9c0.5-0.1,0.9-0.6,0.8-1.2c-0.1-0.5-0.6-0.9-1.2-0.8
		l-14.9,2.9c-0.5,0.1-0.9,0.6-0.8,1.2C12.5,34.1,12.9,34.4,13.3,34.4z"/>
	<path id="XMLID_15_" class="st0" d="M13.3,31.5c0.1,0,0.1,0,0.2,0l14.9-2.9c0.5-0.1,0.9-0.6,0.8-1.2c-0.1-0.5-0.6-0.9-1.2-0.8
		l-14.9,2.9c-0.5,0.1-0.9,0.6-0.8,1.2C12.5,31.1,12.9,31.5,13.3,31.5z"/>
</g>
</svg>
