<?xml version="1.0" encoding="utf-8"?>
<!-- Generator: Adobe Illustrator 19.0.0, SVG Export Plug-In . SVG Version: 6.00 Build 0)  -->
<svg version="1.1" id="Layer_1" xmlns="http://www.w3.org/2000/svg" xmlns:xlink="http://www.w3.org/1999/xlink" x="0px" y="0px"
	 viewBox="0 0 104 98.7" style="enable-background:new 0 0 104 98.7;" xml:space="preserve">
<style type="text/css">
	.st0{fill:#010101;}
</style>
<g id="XMLID_11_">
	<path id="XMLID_13_" class="st0" d="M46.9,88.5h3.4h38.6h3.4c0.6,0,1.1-0.6,1-1.2l-0.8-4c-0.1-0.5-0.5-0.8-1-0.8h-1.8H49.4h-1.8
		c-0.5,0-0.9,0.3-1,0.8l-0.8,4C45.8,88,46.2,88.5,46.9,88.5z"/>
	<path id="XMLID_12_" class="st0" d="M101,91.3c-0.1-0.5-0.5-0.8-1-0.8h-5H44.1h-5c-0.5,0-0.9,0.3-1,0.8l-0.8,4
		c-0.1,0.6,0.4,1.2,1,1.2h6.6h49.3h6.6c0.6,0,1.1-0.6,1-1.2L101,91.3z"/>
</g>
<path id="XMLID_2_" class="st0" d="M86.4,36.2l-2.5-2.5c-0.3-0.3-0.9-0.3-1.3,0l-0.6,0.6L54.2,6.4l0.6-0.6c0.3-0.3,0.3-0.9,0-1.3
	L52.2,2c-0.3-0.3-0.9-0.3-1.3,0L32,21c-0.3,0.3-0.3,0.9,0,1.3l2.5,2.5c0.3,0.3,0.9,0.3,1.3,0l0.5-0.5l9.4,9.4l-43,43
	c-0.4,0.4-0.4,1,0,1.4l7.6,7.6c0.2,0.2,0.5,0.3,0.7,0.3s0.5-0.1,0.7-0.3l43-43l9.4,9.4l-0.5,0.5c-0.3,0.3-0.3,0.9,0,1.3l2.5,2.5
	c0.3,0.3,0.9,0.3,1.3,0l18.9-18.9C86.8,37.1,86.8,36.6,86.4,36.2z M24.4,70.3l-6.2-6.2l1.1-1.1l6.2,6.2L24.4,70.3z M21.8,72.8
	l-6.2-6.2l1.1-1.1l6.2,6.2L21.8,72.8z M19.3,75.3l-6.2-6.2l1.1-1.1l6.2,6.2L19.3,75.3z M16.8,77.9l-6.2-6.2l1.1-1.1l6.2,6.2
	L16.8,77.9z M11.1,83.6l-6.2-6.2l4.3-4.3l6.2,6.2L11.1,83.6z M26.9,67.7l-6.2-6.2l26.4-26.4l6.2,6.2L26.9,67.7z M55.8,40.9
	c0-0.1-0.1-0.3-0.2-0.4s-0.2-0.2-0.4-0.2l-7-7c0-0.1-0.1-0.3-0.2-0.4s-0.2-0.2-0.4-0.2l-9.8-9.8L52.8,7.8l27.9,27.9L65.6,50.7
	L55.8,40.9z"/>
</svg>
