<?xml version="1.0" encoding="utf-8"?>
<!-- Generator: Adobe Illustrator 19.0.0, SVG Export Plug-In . SVG Version: 6.00 Build 0)  -->
<svg version="1.1" id="Layer_1" xmlns="http://www.w3.org/2000/svg" xmlns:xlink="http://www.w3.org/1999/xlink" x="0px" y="0px"
	 viewBox="0 0 42 103" style="enable-background:new 0 0 42 103;" xml:space="preserve">
<style type="text/css">
	.st0{fill:#FFFFFF;}
</style>
<g id="XMLID_14_">
	<path id="XMLID_25_" class="st0" d="M18.4,27.8l4.8-0.9c0.3-0.1,0.6-0.4,0.6-0.8V2.6c0-0.6-0.6-1.1-1.2-1l-4,0.8
		c-0.5,0.1-0.8,0.5-0.8,1v24C17.8,27.7,18.1,27.9,18.4,27.8z"/>
	<path id="XMLID_24_" class="st0" d="M30.6,58.1c-0.9-1.3-1.7-2.5-2.5-3.8c-0.2-0.3-0.6-0.5-1-0.4l-4.6,0.9c-0.4,0.1-0.7,0.6-0.5,1
		c1.1,2,2.4,3.8,3.6,5.7c3.9,5.7,7.9,11.6,8.1,20.6c0.2,7.2-5.5,13.5-12.8,13.5c-7.1,0-12.9-5.7-12.9-12.8c0-9.3,4.1-15.4,8.1-21.3
		c1.1-1.6,2.2-3.2,3.2-4.9c0.3-0.5-0.1-1.1-0.7-1l-5.7,1.1c-0.5,0.1-1,0.4-1.3,0.8c-0.1,0.2-0.3,0.4-0.4,0.6
		c-4.1,6.1-8.7,12.9-9.1,23.2c-0.4,10.9,8.1,20.3,19,20.2c10.2-0.1,18.5-8.5,18.5-18.8C39.8,71.5,34.9,64.3,30.6,58.1z"/>
	<path id="XMLID_23_" class="st0" d="M13.3,55.7c0.1,0,0.1,0,0.2,0l14.9-2.9c0.5-0.1,0.9-0.6,0.8-1.2c-0.1-0.5-0.6-0.9-1.2-0.8
		l-14.9,2.9c-0.5,0.1-0.9,0.6-0.8,1.2C12.4,55.3,12.8,55.7,13.3,55.7z"/>
	<path id="XMLID_22_" class="st0" d="M13.3,52.7c0.1,0,0.1,0,0.2,0l14.9-2.9c0.5-0.1,0.9-0.6,0.8-1.2c-0.1-0.5-0.6-0.9-1.2-0.8
		l-14.9,2.9c-0.5,0.1-0.9,0.6-0.8,1.2C12.4,52.4,12.8,52.7,13.3,52.7z"/>
	<path id="XMLID_21_" class="st0" d="M13.3,49.7c0.1,0,0.1,0,0.2,0l14.9-2.9c0.5-0.1,0.9-0.6,0.8-1.2c-0.1-0.5-0.6-0.9-1.2-0.8
		l-14.9,2.9c-0.5,0.1-0.9,0.6-0.8,1.2C12.4,49.4,12.8,49.7,13.3,49.7z"/>
	<path id="XMLID_20_" class="st0" d="M13.3,46.8c0.1,0,0.1,0,0.2,0l14.9-2.9c0.5-0.1,0.9-0.6,0.8-1.2c-0.1-0.5-0.6-0.9-1.2-0.8
		l-14.9,2.9c-0.5,0.1-0.9,0.6-0.8,1.2C12.4,46.4,12.8,46.8,13.3,46.8z"/>
	<path id="XMLID_19_" class="st0" d="M13.3,43.8c0.1,0,0.1,0,0.2,0l14.9-2.9c0.5-0.1,0.9-0.6,0.8-1.2c-0.1-0.5-0.6-0.9-1.2-0.8
		l-14.9,2.9c-0.5,0.1-0.9,0.6-0.8,1.2C12.4,43.5,12.8,43.8,13.3,43.8z"/>
	<path id="XMLID_18_" class="st0" d="M13.3,40.8c0.1,0,0.1,0,0.2,0l14.9-2.9c0.5-0.1,0.9-0.6,0.8-1.2c-0.1-0.5-0.6-0.9-1.2-0.8
		l-14.9,2.9c-0.5,0.1-0.9,0.6-0.8,1.2C12.4,40.5,12.8,40.8,13.3,40.8z"/>
	<path id="XMLID_17_" class="st0" d="M13.3,37.9c0.1,0,0.1,0,0.2,0l14.9-2.9c0.5-0.1,0.9-0.6,0.8-1.2c-0.1-0.5-0.6-0.9-1.2-0.8
		l-14.9,2.9c-0.5,0.1-0.9,0.6-0.8,1.2C12.4,37.5,12.8,37.9,13.3,37.9z"/>
	<path id="XMLID_16_" class="st0" d="M13.3,34.9c0.1,0,0.1,0,0.2,0L28.3,32c0.5-0.1,0.9-0.6,0.8-1.2c-0.1-0.5-0.6-0.9-1.2-0.8
		l-14.9,2.9c-0.5,0.1-0.9,0.6-0.8,1.2C12.4,34.6,12.8,34.9,13.3,34.9z"/>
	<path id="XMLID_15_" class="st0" d="M13.3,31.9c0.1,0,0.1,0,0.2,0L28.3,29c0.5-0.1,0.9-0.6,0.8-1.2c-0.1-0.5-0.6-0.9-1.2-0.8
		L13.1,30c-0.5,0.1-0.9,0.6-0.8,1.2C12.4,31.6,12.8,31.9,13.3,31.9z"/>
</g>
</svg>
